# xmcd
#
# Track frame offsets:
#	150
#	16206
#	31363
#	44470
#	64721
#	83944
#	95056
#	114485
#	135787
#	142217
#	151047
#	165094
#
# Disc length: 2442
#
# Revision: 1
# Processed by: cddbd v1.5.1PL0 Copyright (c) Steve Scherf et al.
# Submitted via: FreeRIP 2.51 
# Normalized: r0:TRMNUM
#
DISCID=8f09880c
DTITLE=The Shooting Gallery - Dark and Bloody Ground
DYEAR=2003
DGENRE=
TTITLE0=The Huntress
TTITLE1=Defrost
TTITLE2=Hell To Pay
TTITLE3=Harlan
TTITLE4=The Cross She Wears
TTITLE5=The Desert Song
TTITLE6=Tiny Incisions
TTITLE7=If She Should Find Me
TTITLE8=Ohio River Sludge
TTITLE9=Northbound Train
TTITLE10=Error Of Her Ways
TTITLE11=Walking Free
EXTD=alt.country from louisville. kentucky
EXTT0=
EXTT1=
EXTT2=
EXTT3=
EXTT4=
EXTT5=
EXTT6=
EXTT7=
EXTT8=
EXTT9=
EXTT10=
EXTT11=
PLAYORDER=
